<?xml version="1.0" standalone="no"?>
<!DOCTYPE svg PUBLIC "-//W3C//DTD SVG 20010904//EN"
 "http://www.w3.org/TR/2001/REC-SVG-20010904/DTD/svg10.dtd">
<svg version="1.0" xmlns="http://www.w3.org/2000/svg"
 width="720.000000pt" height="720.000000pt" viewBox="0 0 720.000000 720.000000"
 preserveAspectRatio="xMidYMid meet">
<metadata>
Created by potrace 1.14, written by Peter Selinger 2001-2017
</metadata>
<g transform="translate(0.000000,720.000000) scale(0.100000,-0.100000)"
fill="#000000" stroke="none">
<path d="M3409 6746 c-2 -2 -42 -7 -89 -10 -47 -3 -94 -8 -105 -10 -11 -2 -47
-7 -80 -11 -32 -4 -67 -9 -77 -11 -10 -2 -28 -6 -40 -9 -316 -66 -541 -142
-793 -265 -88 -44 -173 -87 -190 -97 -62 -37 -313 -202 -326 -215 -8 -7 -34
-29 -59 -48 -319 -244 -635 -623 -833 -1000 -158 -299 -279 -657 -323 -947 -3
-21 -7 -49 -9 -63 -3 -14 -7 -50 -11 -80 -3 -30 -8 -66 -11 -80 -9 -44 -11
-513 -2 -585 5 -38 14 -108 21 -155 6 -47 12 -89 13 -95 4 -45 48 -241 72
-320 66 -221 105 -325 184 -494 234 -494 584 -913 1021 -1221 62 -44 118 -84
123 -88 34 -26 259 -150 365 -200 156 -74 357 -149 500 -187 8 -2 40 -11 70
-19 30 -8 66 -17 80 -19 14 -3 59 -12 100 -20 82 -17 98 -19 245 -38 153 -20
707 -16 744 5 3 2 35 7 70 10 36 4 67 9 70 11 4 2 27 6 51 10 139 20 403 97
590 172 203 82 475 226 595 315 6 4 56 41 112 82 385 282 715 675 930 1106
101 204 110 225 166 385 59 169 122 410 131 500 3 29 18 126 22 150 12 58 19
212 19 395 0 291 -13 403 -80 733 -2 10 -9 32 -14 50 -6 18 -20 66 -31 107
-50 176 -97 294 -206 515 -260 530 -658 962 -1189 1292 -65 40 -246 135 -345
179 -275 125 -629 223 -896 249 -27 3 -60 8 -74 11 -27 6 -505 15 -511 10z"/>
</g>
</svg>
